<svg xmlns:xlink="http://www.w3.org/1999/xlink" data-v-6ad677b4="" width="15" height="12" viewBox="0 0 15 12" fill="none" xmlns="http://www.w3.org/2000/svg"><path fill-rule="evenodd" clip-rule="evenodd" d="M7.73502 0.669716L7.54422 0.666504C4.78361 0.666504 2.29573 2.61523 0.916831 5.80373C0.862684 5.92893 0.862684 6.07074 0.916831 6.19595L1.01238 6.41103C2.37381 9.39526 4.72652 11.2427 7.35075 11.33L7.54155 11.3332C10.3022 11.3332 12.79 9.38445 14.1689 6.19595C14.2238 6.06916 14.2231 5.92543 14.167 5.7992L14.0741 5.59026C12.7094 2.60045 10.3557 0.756814 7.73502 0.669716ZM7.5489 1.6595L7.7082 1.66293L7.8862 1.67219C10.0177 1.82311 11.9779 3.40358 13.1622 5.9993L13.156 6.01531C11.942 8.66686 9.9142 10.2567 7.7155 10.3365L7.54557 10.3391L7.37419 10.3368L7.19664 10.3276C5.13138 10.1813 3.22715 8.68949 2.03567 6.23969L1.92291 5.9993L2.02729 5.77735C3.28369 3.18199 5.33722 1.66007 7.5489 1.6595ZM7.54255 3.40887C6.10228 3.40887 4.93522 4.56865 4.93522 6.00003C4.93522 7.43087 6.10241 8.59053 7.54255 8.59053C8.98277 8.59053 10.1506 7.43079 10.1506 6.00003C10.1506 4.56873 8.9829 3.40887 7.54255 3.40887ZM7.54255 4.40244C8.43067 4.40244 9.15055 5.11752 9.15055 6.00006C9.15055 6.882 8.43059 7.59701 7.54255 7.59701C6.6547 7.59701 5.93522 6.88218 5.93522 6.00006C5.93522 5.11735 6.65462 4.40244 7.54255 4.40244Z" fill="none" stroke="#200E32"></path></svg>