<svg xmlns:xlink="http://www.w3.org/1999/xlink" data-v-6ad677b4="" width="12" height="16" viewBox="0 0 12 16" fill="none" xmlns="http://www.w3.org/2000/svg"><path d="M6.04297 0.5C8.70897 0.5 11.543 1.376 11.543 3V5C11.543 5.276 11.319 5.5 11.043 5.5C10.767 5.5 10.543 5.276 10.543 5V4.479C9.48197 5.148 7.72997 5.5 6.04297 5.5C4.35597 5.5 2.60397 5.148 1.54297 4.479V5C1.54297 5.489 2.77297 6.269 5.08497 6.462C5.35897 6.484 5.56397 6.727 5.54097 7.002C5.51997 7.263 5.30097 7.46 5.04397 7.46C5.02897 7.46 5.01597 7.459 5.00097 7.458C3.69897 7.349 2.40197 7.012 1.54297 6.465V7C1.54297 7.427 2.44897 8.041 4.12997 8.338C4.40097 8.386 4.58297 8.646 4.53497 8.917C4.49197 9.159 4.28097 9.33 4.04397 9.33C4.01497 9.33 3.98497 9.328 3.95597 9.322C2.93897 9.143 2.12497 8.85 1.54297 8.478V9C1.54297 9.427 2.44897 10.041 4.12997 10.338C4.40097 10.386 4.58297 10.646 4.53497 10.917C4.49197 11.159 4.28097 11.33 4.04397 11.33C4.01497 11.33 3.98497 11.328 3.95597 11.322C2.93897 11.143 2.12497 10.849 1.54297 10.478V11C1.54297 11.427 2.44897 12.041 4.12997 12.338C4.40097 12.386 4.58297 12.646 4.53497 12.917C4.49197 13.159 4.28097 13.33 4.04397 13.33C4.01497 13.33 3.98497 13.328 3.95597 13.322C2.93897 13.143 2.12497 12.849 1.54297 12.478V13C1.54297 13.489 2.77297 14.269 5.08497 14.462C5.35897 14.484 5.56397 14.727 5.54097 15.002C5.51997 15.263 5.30097 15.46 5.04397 15.46C5.02897 15.46 5.01597 15.459 5.00097 15.458C2.78197 15.272 0.542969 14.441 0.542969 13V3C0.542969 1.376 3.37697 0.5 6.04297 0.5ZM6.04297 4.5C8.78997 4.5 10.543 3.611 10.543 3C10.543 2.389 8.78997 1.5 6.04297 1.5C3.29597 1.5 1.54297 2.389 1.54297 3C1.54297 3.611 3.29597 4.5 6.04297 4.5Z" fill="none" stroke="#200E32"></path></svg>