<svg xmlns:xlink="http://www.w3.org/1999/xlink" width="26" height="26" viewBox="0 0 26 26" fill="none" xmlns="http://www.w3.org/2000/svg"><path fill-rule="evenodd" clip-rule="evenodd" d="M8.0424 2.56423C6.34221 2.97674 4.65305 3.42542 2.97633 3.90989C2.82459 3.95216 2.68914 4.03221 2.58555 4.14085C2.48196 4.24948 2.41443 4.38228 2.39071 4.524C1.3998 11.0627 3.68651 15.8346 6.41382 18.9773C7.78213 20.5545 9.26384 21.7223 10.4983 22.4891C11.1174 22.8717 11.6621 23.1502 12.0915 23.3281C12.3072 23.417 12.482 23.4774 12.6158 23.5126C12.6748 23.5297 12.7351 23.5432 12.7961 23.5529C12.8092 23.5512 12.8668 23.5445 12.9765 23.5143C13.1103 23.4774 13.2851 23.417 13.5007 23.3281C13.9283 23.1502 14.4768 22.8717 15.094 22.4891C16.6419 21.5089 18.0187 20.3252 19.1785 18.9773C21.9058 15.8346 24.1925 11.0627 23.2016 4.524C23.1779 4.38228 23.1103 4.24948 23.0067 4.14085C22.9031 4.03221 22.7677 3.95216 22.616 3.90989C21.4522 3.57431 19.4889 3.02732 17.5499 2.56423C15.5681 2.09274 13.7443 1.74038 12.7961 1.74038C11.848 1.74038 10.0261 2.09274 8.0424 2.56423ZM7.56647 0.943389C9.50552 0.480293 11.5636 0.0625 12.7961 0.0625C14.0269 0.0625 16.0868 0.480293 18.0258 0.943389C19.7553 1.36248 21.4736 1.81844 23.1793 2.31087C24.1609 2.59275 24.9008 3.35619 25.044 4.29748C26.1092 11.3396 23.6385 16.5578 20.6434 20.0109C19.3671 21.4928 17.8519 22.7936 16.1481 23.87C15.5557 24.2445 14.9295 24.5734 14.276 24.8532C13.774 25.0613 13.2386 25.2308 12.7961 25.2308C12.3537 25.2308 11.8183 25.0613 11.3163 24.8532C10.6627 24.5737 10.0364 24.2447 9.44417 23.87C7.74112 22.7935 6.22647 21.4927 4.9507 20.0109C1.95196 16.5578 -0.516938 11.3396 0.548331 4.29748C0.619556 3.84122 0.832491 3.41248 1.16249 3.0609C1.49249 2.70933 1.92606 2.44928 2.41302 2.31087C4.11865 1.81845 5.83695 1.36249 7.56647 0.943389V0.943389Z" fill="#02A94C"></path> <path d="M15.5848 10.1298C15.5848 10.7973 15.291 11.4375 14.768 11.9095C14.2451 12.3815 13.5357 12.6466 12.7961 12.6466C12.0565 12.6466 11.3472 12.3815 10.8243 11.9095C10.3013 11.4375 10.0075 10.7973 10.0075 10.1298C10.0075 9.46231 10.3013 8.82214 10.8243 8.35015C11.3472 7.87815 12.0565 7.61298 12.7961 7.61298C13.5357 7.61298 14.2451 7.87815 14.768 8.35015C15.291 8.82214 15.5848 9.46231 15.5848 10.1298V10.1298Z" fill="#02A94C"></path> <path d="M11.7011 12.7037C11.7376 12.5081 11.8497 12.3305 12.0175 12.2024C12.1853 12.0743 12.3979 12.004 12.6177 12.004H12.9077C13.1263 12.0042 13.3379 12.074 13.5052 12.201C13.6725 12.3281 13.7848 12.5043 13.8224 12.6987L14.4675 16.0544C14.4905 16.1749 14.4841 16.2985 14.4486 16.4165C14.4132 16.5346 14.3496 16.6442 14.2623 16.7377C14.175 16.8312 14.0661 16.9063 13.9432 16.9579C13.8203 17.0094 13.6864 17.0361 13.5509 17.036H11.9986C11.8637 17.0359 11.7304 17.0094 11.6079 16.9581C11.4855 16.9069 11.3769 16.8322 11.2897 16.7393C11.2025 16.6464 11.1388 16.5374 11.1029 16.42C11.067 16.3026 11.0599 16.1796 11.082 16.0595L11.7011 12.7037V12.7037Z" fill="#02A94C"></path></svg>