<svg xmlns:xlink="http://www.w3.org/1999/xlink" data-v-6b864539="" width="13" height="17" viewBox="0 0 13 17" fill="none" xmlns="http://www.w3.org/2000/svg"><path d="M0.542969 1.48298C0.542969 1.05902 0.886654 0.715332 1.31061 0.715332C1.73457 0.715332 2.07825 1.05902 2.07825 1.48297V16.1419C2.07825 16.5659 1.73457 16.9096 1.31061 16.9096C0.886654 16.9096 0.542969 16.5659 0.542969 16.1419V1.48298Z" fill="#008000"></path> <path d="M5.77513 7.19457C5.77513 6.77061 6.11881 6.42692 6.54277 6.42692C6.96673 6.42692 7.31041 6.77061 7.31041 7.19457V16.1419C7.31041 16.5659 6.96673 16.9096 6.54277 16.9096C6.11881 16.9096 5.77513 16.5659 5.77513 16.1419V7.19457Z" fill="#008000"></path> <path d="M11.0077 10.4647C11.0077 10.0407 11.3514 9.69701 11.7754 9.69701C12.1993 9.69701 12.543 10.0407 12.543 10.4647V16.1419C12.543 16.5659 12.1993 16.9095 11.7754 16.9095C11.3514 16.9095 11.0077 16.5659 11.0077 16.1419V10.4647Z" fill="#008000"></path></svg>