<svg width="110" height="26" viewBox="0 0 110 26" fill="none" xmlns="http://www.w3.org/2000/svg">
<path d="M110 3.6416C108.271 6.19688 107.548 9.32711 105.851 11.8824C105.065 13.0642 104.154 14.2141 103.023 15.0126C102.394 15.4598 101.671 15.7792 100.948 15.9708C100.885 16.0028 100.791 16.0028 100.728 16.0347C99.9425 16.2583 99.094 16.3541 98.2768 16.45C98.1825 16.45 98.0882 16.4819 97.994 16.4819C97.4597 16.5458 96.9568 16.6097 96.454 16.6735C95.354 16.8332 94.8825 16.2583 95.9825 15.6514C96.0454 15.6195 96.0768 15.5875 96.1397 15.5556C96.2968 15.4917 96.454 15.3959 96.6425 15.332C96.7682 15.2681 96.894 15.2043 97.0511 15.1404C97.114 15.1084 97.1768 15.0765 97.2397 15.0445C99.314 13.735 102.865 9.61457 103.745 8.01752C101.954 9.74234 98.4025 12.074 96.4225 12.8087C96.3597 12.8406 95.6997 13.0642 95.9511 12.617C96.6425 11.2436 97.0825 9.64652 97.8997 8.33693C98.654 7.15512 99.754 6.22882 101.011 5.71777C102.3 5.20671 103.745 5.11089 105.128 4.91924C106.731 4.7276 108.554 4.47207 110 3.6416Z" fill="#3A9B23"/>
<path d="M95.9194 15.172C98.1194 15.6511 100.477 15.8747 102.457 17.0565C103.619 17.7592 104.562 18.6855 105.411 19.6118C107.202 21.6241 108.082 23.9877 109.905 26C108.428 25.2653 106.637 24.8821 105.034 24.5626C103.682 24.2752 102.268 24.0835 100.979 23.5725C99.6909 23.0614 98.5909 22.2948 97.7737 21.3685C96.8937 20.3464 96.3909 19.1646 95.6366 18.0786C95.3851 17.7273 96.0451 17.9828 96.108 17.9828C98.088 18.7174 101.702 20.7617 103.525 22.199C102.457 20.8255 98.088 16.8968 96.2023 16.1941C94.2537 15.4595 94.6309 14.9165 95.9194 15.172Z" fill="#48CB2A"/>
<path d="M9.9 14.9167L16.3114 24.4032H10.3086L6.50571 18.6538L4.93429 20.4106V24.4351H0V0.575195H4.93429V13.5433L9.83714 8.0494H16.2171L9.9 14.9167Z" fill="white"/>
<path d="M32.1203 8.04883L35.2631 17.7589L37.966 8.04883H42.7746L37.7774 24.4026H32.8746L29.386 13.8302L25.9603 24.4026H20.9946L15.9346 8.04883H21.0574L23.7603 17.727L26.9346 8.04883H32.1203Z" fill="white"/>
<path d="M44.377 24.4026V8.04883H49.3112V24.4026H44.377Z" fill="white"/>
<path d="M68.5456 21.4646C68.5456 22.9339 68.6399 24.0199 68.6714 24.4032H63.9571C63.9256 24.2116 63.8314 23.4769 63.8314 22.8381C63.0771 23.956 61.4742 24.7865 59.5256 24.7865C54.9999 24.7865 51.5742 21.241 51.5742 16.1944C51.5742 11.3393 54.8114 7.6661 59.3685 7.6661C62.1342 7.6661 63.3285 8.72016 63.7056 9.35898V0.575195H68.5771V21.4646H68.5456ZM60.1228 20.2828C62.0399 20.2828 63.7371 18.9093 63.7371 16.1944C63.7371 13.4474 62.0085 12.1378 60.1228 12.1378C58.2056 12.1378 56.5085 13.4474 56.5085 16.1944C56.5085 18.9093 58.2056 20.2828 60.1228 20.2828Z" fill="white"/>
<path d="M86.7119 19.6757C85.9262 22.5184 83.3805 24.8821 79.2947 24.8821C74.8633 24.8821 70.9033 21.656 70.9033 16.1622C70.9033 10.8919 74.769 7.53809 78.9176 7.53809C83.9147 7.53809 86.9947 10.6683 86.9947 15.9386C86.9947 16.6413 86.9319 17.3759 86.9005 17.4717H75.7119C75.8062 19.3243 77.4719 20.6339 79.3576 20.6339C81.149 20.6339 82.1547 19.7715 82.5947 18.4939L86.7119 19.6757ZM82.2176 14.2457C82.1547 13 81.3062 11.4668 78.9805 11.4668C76.9062 11.4668 75.869 13 75.7747 14.2457H82.2176Z" fill="white"/>
<path d="M96.7059 16.2261L94.003 20.3785L91.2373 24.6905H85.8316L91.3944 16.6094L85.7373 8.36865H91.5516L94.2545 12.489L96.7059 16.2261Z" fill="white"/>
<path d="M47.0172 6.51597C48.7877 6.51597 50.223 5.05732 50.223 3.25798C50.223 1.45865 48.7877 0 47.0172 0C45.2468 0 43.8115 1.45865 43.8115 3.25798C43.8115 5.05732 45.2468 6.51597 47.0172 6.51597Z" fill="#48CB2A"/>
</svg>
